<svg width="108" height="108" viewBox="0 0 108 108" fill="none" xmlns="http://www.w3.org/2000/svg">
  <circle cx="54" cy="54" r="48" fill="#FFF8EE"/>
  <path d="M54 14C76.0914 14 94 31.9086 94 54C94 76.0914 76.0914 94 54 94C40.0344 94 27.7402 86.8497 20.6 76.0031" stroke="#2A7C74" stroke-width="6" stroke-linecap="round"/>
  <circle cx="82" cy="24" r="6" fill="#E08A2E"/>
  <path d="M28 36C28 29.3726 33.3726 24 40 24H46C51.2977 24 56.3486 26.1349 60 30V71C56.3393 66.9054 51.1039 64.5714 46 64.5714H38C32.4772 64.5714 28 60.0943 28 54.5714V36Z" fill="#0E6A55"/>
  <path d="M80 36C80 29.3726 74.6274 24 68 24H62C56.7023 24 51.6514 26.1349 48 30V71C51.6607 66.9054 56.8961 64.5714 62 64.5714H70C75.5228 64.5714 80 60.0943 80 54.5714V36Z" fill="#0E6A55"/>
  <path d="M50 32H58V55L54 51.7L50 55V32Z" fill="#FFD99A"/>
  <path d="M34 37C34 34.7909 35.7909 33 38 33H44C48.0684 33 51.955 34.2935 55 36.6V58.8C52.0715 56.3917 48.356 55.2 44.5647 55.2H38C35.7909 55.2 34 53.4091 34 51.2V37Z" fill="#FFF4DE"/>
  <path d="M74 37C74 34.7909 72.2091 33 70 33H64C59.9316 33 56.045 34.2935 53 36.6V58.8C55.9285 56.3917 59.644 55.2 63.4353 55.2H70C72.2091 55.2 74 53.4091 74 51.2V37Z" fill="#FFF4DE"/>
</svg>
